<?xml version="1.0" encoding="UTF-8"?>
<!DOCTYPE svg PUBLIC "-//W3C//DTD SVG 1.1//EN" "http://www.w3.org/Graphics/SVG/1.1/DTD/svg11.dtd" [
<!ENTITY white             "#dddddd">
<!ENTITY white_border      "#aaaaaa">
<!ENTITY white_point_color "#7f7f7f">
<!ENTITY black             "#111111">
<!ENTITY black_border      "#444444">
<!ENTITY black_point_color "#900000">
<!ENTITY frame_color       "#332600">
<!ENTITY board_color       "#664000">
]>
<svg viewBox="0 0 490 460" width="490" height="460" 
     xmlns:xlink="http://www.w3.org/1999/xlink" 
     xmlns="http://www.w3.org/2000/svg">
    <rect width="490" height="460" fill="#553000"/>
    <g>
      <text id="match_length" font-family="Verdana"
            font-size="12px" text-anchor="start"
            x="10" y="15" fill="#ffd020">Match length: 7</text>
      <text id="match_info" font-family="Verdana"
            font-size="12px" text-anchor="end"
            x="480" y="15" fill="#ffd020">Post Crawford game</text>
      <text id="result2" font-family="Verdana"
            font-size="12px" text-anchor="start"
            x="10" y="35" fill="#ffd020">Score: 3 (4-away)</text>
      <text id="pip2" font-family="Verdana"
            font-size="12px" text-anchor="middle"
            x="245" y="35" fill="#ffd020">Pips: 167</text>
      <text id="player2" font-family="Verdana" font-weight="bold"
            font-size="12px" text-anchor="end"
            x="480" y="35" fill="#ffd020">She</text>
    </g>

    <g transform="translate(0, 420)">
      <text id="result1" font-family="Verdana"
            font-size="12px" text-anchor="start"
            x="10" y="15" fill="#ffd020">Score: 6 (1-away)</text>
      <text id="pip1" font-family="Verdana"
            font-size="12px" text-anchor="middle"
            x="245" y="15" fill="#ffd020">Pips: 167</text>
      <text id="player1" font-family="Verdana" font-weight="bold"
            font-size="12px" text-anchor="end"
            x="480" y="15" fill="#ffd020">You</text>
      <text id="status-bar" font-family="Verdana"
            font-size="12px" text-anchor="middle"
            x="245" y="35" fill="#ffd020">It's your turn to roll the dice</text>
    </g>

    <g transform="translate(0, 40)">
        <!-- Frame, covering the inner board.  -->
        <rect width="490" height="380" fill="#332600"/>
	<!-- Left home compartments.  -->
	<rect height="150" width="30" y="10" x="10" fill="#664000"/>
	<rect height="150" width="30" y="220" x="10" fill="#664000"/>
	<!-- (Right) home compartments.  -->
	<rect height="150" width="30" y="10" x="450" fill="#664000"/>
	<rect height="150" width="30" y="220" x="450" fill="#664000"/>
	<!-- Left board.  -->
	<rect height="360" width="180" y="10" x="50" fill="#664000"/>
	<!-- Right board.  -->
	<rect height="360" width="180" y="10" x="260" fill="#664000"/>
	<!-- Points.  -->
	<polygon points=" 50,10  80,10  65,160" fill="#900000"/>
	<polygon points=" 80,10 110,10  95,160" fill="#7f7f7f"/>
	<polygon points="110,10 140,10 125,160" fill="#900000"/>
	<polygon points="140,10 170,10 155,160" fill="#7f7f7f"/>
	<polygon points="170,10 200,10 185,160" fill="#900000"/>
	<polygon points="200,10 230,10 215,160" fill="#7f7f7f"/>
	<polygon points="260,10 290,10 275,160" fill="#900000"/>
	<polygon points="290,10 320,10 305,160" fill="#7f7f7f"/>
	<polygon points="320,10 350,10 335,160" fill="#900000"/>
	<polygon points="350,10 380,10 365,160" fill="#7f7f7f"/>
	<polygon points="380,10 410,10 395,160" fill="#900000"/>
	<polygon points="410,10 440,10 425,160" fill="#7f7f7f" id="point24"/>
	<polygon points=" 50,370  80,370  65,220" fill="#7f7f7f" id="point12"/>
	<polygon points=" 80,370 110,370  95,220" fill="#900000"/>
	<polygon points="110,370 140,370 125,220" fill="#7f7f7f"/>
	<polygon points="140,370 170,370 155,220" fill="#900000"/>
	<polygon points="170,370 200,370 185,220" fill="#7f7f7f"/>
	<polygon points="200,370 230,370 215,220" fill="#900000"/>
	<polygon points="260,370 290,370 275,220" fill="#7f7f7f"/>
	<polygon points="290,370 320,370 305,220" fill="#900000"/>
	<polygon points="320,370 350,370 335,220" fill="#7f7f7f"/>
	<polygon points="350,370 380,370 365,220" fill="#900000"/>
	<polygon points="380,370 410,370 395,220" fill="#7f7f7f"/>
	<polygon points="410,370 440,370 425,220" fill="#900000" id="point1"/>

        <g id="checker_w_flat">
	    <circle stroke="#aaaaaa" stroke-width="1" fill="#dddddd" r="15" cy="25" cx="425"/>
        </g>
        <g id="checker_w_home">
            <rect stroke="#aaaaaa" stroke-width="1" fill="#dddddd"
                  rx="2" ry="2" x="450" y="10" height="10" width="30"/>
        </g>
        
        <g id="checker_b_flat">
	    <circle stroke="#444444" stroke-width="1" fill="#111111" r="15" cy="355" cx="65"/>
        </g>
        <g id="checker_b_home">
            <rect stroke="#444444" stroke-width="1" fille="#111111"
                  rx="2" ry="2" x="450" y="360" height="10" width="30"/>
        </g>

        <g id="die_w_1">
            <rect stroke="#aaaaaa" stroke-width="1" fill="#dddddd" ry="3" rx="3" height="20" width="20" y="180" x="55"/>
            <circle stroke="#444444" stroke-width="1" fill="#111111" r="1.8" cy="190" cx="65"/>
        </g>
        <g id="die_w_2">
            <rect stroke="#aaaaaa" stroke-width="1" fill="#dddddd" ry="3" rx="3" height="20" width="20" y="180" x="80"/>
            <circle stroke="#444444" stroke-width="1" fill="#111111" r="1.8" cy="195" cx="85"/>
            <circle stroke="#444444" stroke-width="1" fill="#111111" r="1.8" cy="185" cx="95"/>
        </g>
        <g id="die_w_3">
            <rect stroke="#aaaaaa" stroke-width="1" fill="#dddddd" ry="3" rx="3" height="20" width="20" y="180" x="105"/>
            <circle stroke="#444444" stroke-width="1" fill="#111111" r="1.8" cy="195" cx="110"/>
            <circle stroke="#444444" stroke-width="1" fill="#111111" r="1.8" cy="190" cx="115"/>
            <circle stroke="#444444" stroke-width="1" fill="#111111" r="1.8" cy="185" cx="120"/>
        </g>
        <g id="die_w_4">
            <rect stroke="#aaaaaa" stroke-width="1" fill="#dddddd" ry="3" rx="3" height="20" width="20" y="180" x="130"/>
            <circle stroke="#444444" stroke-width="1" fill="#111111" r="1.8" cy="195" cx="135"/>
            <circle stroke="#444444" stroke-width="1" fill="#111111" r="1.8" cy="195" cx="145"/>
            <circle stroke="#444444" stroke-width="1" fill="#111111" r="1.8" cy="185" cx="135"/>
            <circle stroke="#444444" stroke-width="1" fill="#111111" r="1.8" cy="185" cx="145"/>
        </g>
        <g id="die_w_5">
            <rect stroke="#aaaaaa" stroke-width="1" fill="#dddddd" ry="3" rx="3" height="20" width="20" y="180" x="155"/>
            <circle stroke="#444444" stroke-width="1" fill="#111111" r="1.8" cy="195" cx="160"/>
            <circle stroke="#444444" stroke-width="1" fill="#111111" r="1.8" cy="195" cx="170"/>
            <circle stroke="#444444" stroke-width="1" fill="#111111" r="1.8" cy="190" cx="165"/>
            <circle stroke="#444444" stroke-width="1" fill="#111111" r="1.8" cy="185" cx="160"/>
            <circle stroke="#444444" stroke-width="1" fill="#111111" r="1.8" cy="185" cx="170"/>
        </g>
        <g id="die_w_6">
            <rect stroke="#aaaaaa" stroke-width="1" fill="#dddddd" ry="3" rx="3" height="20" width="20" y="180" x="180"/>
            <circle stroke="#444444" stroke-width="1" fill="#111111" r="1.8" cy="195" cx="185"/>
            <circle stroke="#444444" stroke-width="1" fill="#111111" r="1.8" cy="195" cx="195"/>
            <circle stroke="#444444" stroke-width="1" fill="#111111" r="1.8" cy="190" cx="185"/>
            <circle stroke="#444444" stroke-width="1" fill="#111111" r="1.8" cy="190" cx="195"/>
            <circle stroke="#444444" stroke-width="1" fill="#111111" r="1.8" cy="185" cx="185"/>
            <circle stroke="#444444" stroke-width="1" fill="#111111" r="1.8" cy="185" cx="195"/>
        </g>

        <g id="die_b_1">
            <rect stroke="#444444" stroke-width="1" fill="#111111" ry="3" rx="3" height="20" width="20" y="180" x="265"/>
            <circle stroke="#aaaaaa" stroke-width="1" fill="#dddddd" r="1.8" cy="190" cx="275"/>
        </g>
        <g id="die_b_2">
            <rect stroke="#444444" stroke-width="1" fill="#111111" ry="3" rx="3" height="20" width="20" y="180" x="290"/>
            <circle stroke="#aaaaaa" stroke-width="1" fill="#dddddd" r="1.8" cy="195" cx="295"/>
            <circle stroke="#aaaaaa" stroke-width="1" fill="#dddddd" r="1.8" cy="185" cx="305"/>
        </g>
        <g id="die_b_3">
            <rect stroke="#444444" stroke-width="1" fill="#111111" ry="3" rx="3" height="20" width="20" y="180" x="315"/>
            <circle stroke="#aaaaaa" stroke-width="1" fill="#dddddd" r="1.8" cy="195" cx="320"/>
            <circle stroke="#aaaaaa" stroke-width="1" fill="#dddddd" r="1.8" cy="190" cx="325"/>
            <circle stroke="#aaaaaa" stroke-width="1" fill="#dddddd" r="1.8" cy="185" cx="330"/>
        </g>
        <g id="die_b_4">
            <rect stroke="#444444" stroke-width="1" fill="#111111" ry="3" rx="3" height="20" width="20" y="180" x="340"/>
            <circle stroke="#aaaaaa" stroke-width="1" fill="#dddddd" r="1.8" cy="195" cx="345"/>
            <circle stroke="#aaaaaa" stroke-width="1" fill="#dddddd" r="1.8" cy="195" cx="355"/>
            <circle stroke="#aaaaaa" stroke-width="1" fill="#dddddd" r="1.8" cy="185" cx="345"/>
            <circle stroke="#aaaaaa" stroke-width="1" fill="#dddddd" r="1.8" cy="185" cx="355"/>
        </g>
        <g id="die_b_5">
            <rect stroke="#444444" stroke-width="1" fill="#111111" ry="3" rx="3" height="20" width="20" y="180" x="365"/>
            <circle stroke="#aaaaaa" stroke-width="1" fill="#dddddd" r="1.8" cy="195" cx="370"/>
            <circle stroke="#aaaaaa" stroke-width="1" fill="#dddddd" r="1.8" cy="195" cx="380"/>
            <circle stroke="#aaaaaa" stroke-width="1" fill="#dddddd" r="1.8" cy="190" cx="375"/>
            <circle stroke="#aaaaaa" stroke-width="1" fill="#dddddd" r="1.8" cy="185" cx="370"/>
            <circle stroke="#aaaaaa" stroke-width="1" fill="#dddddd" r="1.8" cy="185" cx="380"/>
        </g>
        <g id="die_b_6">
            <rect stroke="#444444" stroke-width="1" fill="#111111" ry="3" rx="3" height="20" width="20" y="180" x="390"/>
            <circle stroke="#aaaaaa" stroke-width="1" fill="#dddddd" r="1.8" cy="195" cx="395"/>
            <circle stroke="#aaaaaa" stroke-width="1" fill="#dddddd" r="1.8" cy="195" cx="405"/>
            <circle stroke="#aaaaaa" stroke-width="1" fill="#dddddd" r="1.8" cy="190" cx="395"/>
            <circle stroke="#aaaaaa" stroke-width="1" fill="#dddddd" r="1.8" cy="190" cx="405"/>
            <circle stroke="#aaaaaa" stroke-width="1" fill="#dddddd" r="1.8" cy="185" cx="395"/>
            <circle stroke="#aaaaaa" stroke-width="1" fill="#dddddd" r="1.8" cy="185" cx="405"/>
        </g>
        <g id="cube">
            <rect stroke="#aaaaaa" stroke-width="1" fill="#dddddd"
                  rx="3" ry="3" width="30" height="30"
                  x="10" y="175"/>
            <text x="25" y="190" id="cube-value"
                  text-anchor="middle"
                  font-size="20px"
                  color="111111"
                  font-family="Arial"
                  font-weight="bold"
                  dominant-baseline="central"
                  >1</text>
        </g>
    </g>
</svg>
