<?xml version="1.0" encoding="UTF-8"?>
<!DOCTYPE svg PUBLIC "-//W3C//DTD SVG 1.1//EN" "http://www.w3.org/Graphics/SVG/1.1/DTD/svg11.dtd">
<svg	xmlns="http://www.w3.org/2000/svg"
	xmlns:xlink="http://www.w3.org/1999/xlink"
	width="490"
	height="380"
	viewBox="0 0 490 380">
	<!-- Frame, covering everything.  -->
	<rect fill="#332600"
	      width="490"
	      height="380"
	/>
	<!-- Left home compartments.  -->
	<rect fill="#664000"
		x="10"
		y="10"
		width="30"
		height="150"
	/>
	<rect fill="#664000"
		x="10"
		y="220"
		width="30"
		height="150"
	/>
	<!-- (Right) home compartments.  -->
	<rect fill="#664000"
		x="450"
		y="10"
		width="30"
		height="150"
	/>
	<rect fill="#664000"
		x="450"
		y="220"
		width="30"
		height="150"
	/>
	<!-- Left board.  -->
	<rect fill="#664000"
		x="50"
		y="10"
		width="180"
		height="360"
	/>
	<!-- Right board.  -->
	<rect fill="#664000"
		x="260"
		y="10"
		width="180"
		height="360"
	/>
	<!-- Points.  -->
	<polygon fill="#990000" points=" 50,10  80,10  65,160" />
	<polygon fill="#7f7f7f" points=" 80,10 110,10  95,160" />
	<polygon fill="#990000" points="110,10 140,10 125,160" />
	<polygon fill="#7f7f7f" points="140,10 170,10 155,160" />
	<polygon fill="#990000" points="170,10 200,10 185,160" />
	<polygon fill="#7f7f7f" points="200,10 230,10 215,160" />
	<polygon fill="#990000" points="260,10 290,10 275,160" />
	<polygon fill="#7f7f7f" points="290,10 320,10 305,160" />
	<polygon fill="#990000" points="320,10 350,10 335,160" />
	<polygon fill="#7f7f7f" points="350,10 380,10 365,160" />
	<polygon fill="#990000" points="380,10 410,10 395,160" />
	<polygon id="point24" fill="#7f7f7f" points="410,10 440,10 425,160" />
	<polygon fill="#7f7f7f" points=" 50,370  80,370  65,220" />
	<polygon fill="#990000" points=" 80,370 110,370  95,220" />
	<polygon fill="#7f7f7f" points="110,370 140,370 125,220" />
	<polygon fill="#990000" points="140,370 170,370 155,220" />
	<polygon fill="#7f7f7f" points="170,370 200,370 185,220" />
	<polygon fill="#990000" points="200,370 230,370 215,220" />
	<polygon fill="#7f7f7f" points="260,370 290,370 275,220" />
	<polygon fill="#990000" points="290,370 320,370 305,220" />
	<polygon fill="#7f7f7f" points="320,370 350,370 335,220" />
	<polygon fill="#990000" points="350,370 380,370 365,220" />
	<polygon fill="#7f7f7f" points="380,370 410,370 395,220" />
	<polygon fill="#990000" points="410,370 440,370 425,220" />
</svg>
